# xmcd
#
# Track frame offsets:
#	150
#	22207
#	61287
#	77067
#	101721
#	118413
#	139388
#	159426
#	186019
#	207156
#	249424
#	266932
#	289080
#	316631
#	338968
#
# Disc length: 4783 seconds
#
# Revision: 0
# Processed by: cddbd v1.5.2PL0 Copyright (c) Steve Scherf et al.
# Submitted via: EasyCDDAExtractor 2010.6.0.0
#
DISCID=e312ad0f
DTITLE=Various Artist - Akella Presents - Modern Electric Blues - vol.15  CD1
DYEAR=2010
DGENRE=Blues
TTITLE0=COLIN JAMES - Far Away Like A Radio
TTITLE1=WALTER TROUT and JOHN MAYALL - She Takes More Than She Gives
TTITLE2=JOHN MELLENCAMP - Down In The Bottom
TTITLE3=ERIC BURDON - Highway 62
TTITLE4=AL BASILE - Just a Heartache
TTITLE5=BLUES COMPANY - Run Your Finger Through My Hair
TTITLE6=ALBERT CUMMINGS - Say You Love Me
TTITLE7=TOSCHO - Oh Lord
TTITLE8=GIANFRANCO SEGATTO - It's A Blue Sky Day
TTITLE9=RICK DERRINGER - Something Inside of Me
TTITLE10=J.J.CALE and ERIC CLAPTON - Last Will And Testament
TTITLE11=ALEX SCHULTZ - Who Will the Next Fool Be
TTITLE12=ZYDECO PLAYBOYS - Voodoo in Bayon
TTITLE13=GEOFF ACHISON and The SOULDIGGERS - Never Give It Up
TTITLE14=The CATE BROTHERS - Yield Not To Temptation
EXTD=
EXTT0=
EXTT1=
EXTT2=
EXTT3=
EXTT4=
EXTT5=
EXTT6=
EXTT7=
EXTT8=
EXTT9=
EXTT10=
EXTT11=
EXTT12=
EXTT13=
EXTT14=
PLAYORDER=
